# xmcd CD database file
#
# Track frame offsets:
#	150
#	39063
#	53976
#	69415
#	83884
#	100916
#	147032
#	154096
#	165233
#	184417
#	215488
#	233592
#	237426
#	252885
#	271016
#	305570
#
# Disc length: 4300 seconds
#
# Revision: 1
# Processed by: cddbd v1.5.2PL0 Copyright (c) Steve Scherf et al.
# Submitted via: CDex 1.51
#
DISCID=cd10ca10
DTITLE=Johann Strauss - La Chauve-souris [extraits]  (Ferenc Friscay, RIAS Sinfonieorchester)
DYEAR=1900
DGENRE=operette
TTITLE0=La Chauve-souris - Ouverture
TTITLE1=Täubchen, das entflattert ist - Da schreibt meine Schwester Ida
TTITLE2=Nein, mit solchen Advokaten
TTITLE3=Komm mit mir zum Souper
TTITLE4=So muss allein ich Bleiben
TTITLE5=Trinke, Liebchen - Mein Herr, was dächten Sie von mir - Mein schönesgrosses Vogelhaus
TTITLE6=Ein Souper uns heute winkt
TTITLE7=Ich lade gern mir Gäste ein
TTITLE8=Dieser Anstand, so manierlich
TTITLE9=Im Feuerstrom der Reben - Brüderlein und Schwesterlein - Dialog
TTITLE10=Genug damit, genug
TTITLE11=Entracte
TTITLE12=Melodram
TTITLE13=Spiel' ich die Unschuld vom Lande
TTITLE14=Ich stehe voll Zagen
TTITLE15=O Fledermaus, O Fledermaus
EXTD=
EXTT0=
EXTT1=
EXTT2=
EXTT3=
EXTT4=
EXTT5=
EXTT6=
EXTT7=
EXTT8=
EXTT9=
EXTT10=
EXTT11=
EXTT12=
EXTT13=
EXTT14=
EXTT15=
PLAYORDER=
